<svg width="10" height="10" viewBox="0 0 10 10" fill="none" xmlns="http://www.w3.org/2000/svg">
<path d="M4 5.33333H0.666667C0.298477 5.33333 0 5.03486 0 4.66667C0 4.29848 0.298477 4 0.666667 4H4V0.666667C4 0.298477 4.29848 0 4.66667 0C5.03486 0 5.33333 0.298477 5.33333 0.666667V4H8.66667C9.03486 4 9.33333 4.29848 9.33333 4.66667C9.33333 5.03486 9.03486 5.33333 8.66667 5.33333H5.33333V8.66667C5.33333 9.03486 5.03486 9.33333 4.66667 9.33333C4.29848 9.33333 4 9.03486 4 8.66667V5.33333Z" fill="url(#paint0_linear_373_6814)"/>
<defs>
<linearGradient id="paint0_linear_373_6814" x1="1.53088" y1="8.0041" x2="7.9889" y2="1.42217" gradientUnits="userSpaceOnUse">
<stop stop-color="#F2A892"/>
<stop offset="0.5" stop-color="#D79EBF"/>
<stop offset="1" stop-color="#AC95F5"/>
</linearGradient>
</defs>
</svg>
