<svg width="17" height="17" viewBox="0 0 17 17" fill="none" xmlns="http://www.w3.org/2000/svg">
<mask id="path-1-inside-1_214_9448" fill="white">
<path d="M7.1627 0.552768L0.108633 14.6609C-0.285737 15.4496 0.459638 16.3256 1.30133 16.0626L7.05713 14.2639L8.05713 7.76392L9.05713 14.2639L14.8129 16.0626C15.6546 16.3256 16.4 15.4496 16.0056 14.6609L8.95156 0.55277C8.58303 -0.184278 7.53123 -0.18428 7.1627 0.552768Z"/>
</mask>
<path d="M7.1627 0.552768L0.108633 14.6609C-0.285737 15.4496 0.459638 16.3256 1.30133 16.0626L7.05713 14.2639L8.05713 7.76392L9.05713 14.2639L14.8129 16.0626C15.6546 16.3256 16.4 15.4496 16.0056 14.6609L8.95156 0.55277C8.58303 -0.184278 7.53123 -0.18428 7.1627 0.552768Z" fill="url(#paint0_linear_214_9448)"/>
<path d="M0.0974526 14.6553C0.104906 14.659 0.11236 14.6628 0.119813 14.6665C0.594288 13.7175 1.06876 12.7686 1.54324 11.8196C3.42012 8.06589 5.297 4.31212 7.17388 0.558358C7.48292 -0.152999 8.63134 -0.152996 8.94038 0.558361C11.2917 5.26107 13.6431 9.96379 15.9944 14.6665C16.4091 15.3849 15.5922 16.345 14.8167 16.0507C12.8981 15.4511 10.9795 14.8515 9.06086 14.252L9.06948 14.262C8.73615 12.0953 8.40282 9.92868 8.06948 7.76202H8.04477C7.71144 9.92868 7.37811 12.0953 7.04477 14.262L7.0534 14.252C5.40284 14.7678 3.75227 15.2836 2.10171 15.7994C1.83367 15.8832 1.56564 15.9669 1.29761 16.0507C0.522049 16.345 -0.294849 15.3849 0.119813 14.6665C0.11236 14.6628 0.104906 14.659 0.0974526 14.6553C-0.327453 15.3922 0.509687 16.376 1.30506 16.0745C1.5731 15.9908 1.84113 15.907 2.10916 15.8233C3.75973 15.3074 5.41029 14.7916 7.06086 14.2758L7.0683 14.2735L7.06948 14.2658C7.40282 12.0991 7.73615 9.93248 8.06948 7.76582H8.04477C8.37811 9.93248 8.71144 12.0991 9.04477 14.2658L9.04596 14.2735L9.0534 14.2758C10.972 14.8754 12.8906 15.475 14.8092 16.0745C15.6046 16.376 16.4417 15.3922 16.0168 14.6553C13.6655 9.95261 11.3141 5.24989 8.96274 0.54718C8.64562 -0.182153 7.46864 -0.182156 7.15152 0.547178C5.27464 4.30094 3.39776 8.05471 1.52088 11.8085C1.0464 12.7574 0.571927 13.7064 0.0974526 14.6553ZM0.119813 14.6665L0.0974526 14.6553L0.119813 14.6665Z" fill="black" mask="url(#path-1-inside-1_214_9448)"/>
<defs>
<linearGradient id="paint0_linear_214_9448" x1="2.00954" y1="14.2004" x2="14.4643" y2="1.50668" gradientUnits="userSpaceOnUse">
<stop stop-color="#F2A892"/>
<stop offset="0.5" stop-color="#D79EBF"/>
<stop offset="1" stop-color="#AC95F5"/>
</linearGradient>
</defs>
</svg>
